<?xml version="1.0" standalone="no"?>
<!DOCTYPE svg PUBLIC "-//W3C//DTD SVG 20010904//EN"
 "http://www.w3.org/TR/2001/REC-SVG-20010904/DTD/svg10.dtd">
<svg version="1.0" xmlns="http://www.w3.org/2000/svg"
 width="1024.000000pt" height="1024.000000pt" viewBox="0 0 1024.000000 1024.000000"
 preserveAspectRatio="xMidYMid meet">

<g transform="translate(0.000000,1024.000000) scale(0.100000,-0.100000)"
fill="#000000" stroke="none">
<path d="M4930 8214 c-483 -42 -881 -173 -1273 -421 -705 -447 -1190 -1240
-1268 -2077 -15 -160 -6 -500 16 -643 87 -563 335 -1065 720 -1462 229 -237
449 -399 733 -543 408 -206 796 -298 1257 -298 503 0 957 120 1392 370 220
127 362 236 556 428 465 460 720 990 788 1642 15 142 6 498 -15 633 -60 378
-207 781 -391 1072 -149 236 -354 476 -546 639 -415 355 -881 568 -1399 641
-109 15 -472 28 -570 19z m495 -305 c697 -81 1356 -491 1750 -1088 214 -326
341 -671 391 -1061 22 -182 16 -502 -15 -675 -85 -482 -289 -895 -617 -1252
-47 -51 -90 -93 -95 -93 -6 0 -786 776 -1735 1725 -1250 1249 -1723 1728
-1717 1738 4 8 48 50 96 93 420 375 934 590 1507 628 82 5 332 -3 435 -15z"/>
<path d="M5626 2353 c-3 -3 -6 -105 -6 -225 0 -187 2 -218 15 -218 13 0 15 31
15 219 0 200 -5 243 -24 224z"/>
<path d="M4224 2331 c-56 -26 -93 -76 -106 -147 -19 -102 15 -206 84 -257 33
-24 114 -33 161 -18 34 12 97 71 97 91 0 20 -30 9 -46 -16 -23 -34 -65 -54
-116 -54 -94 0 -147 70 -148 193 0 80 16 123 59 160 61 51 146 44 196 -15 16
-19 31 -28 41 -24 13 5 12 10 -6 36 -32 45 -62 61 -122 66 -39 4 -64 0 -94
-15z"/>
<path d="M4954 2336 c-43 -19 -64 -53 -64 -102 0 -48 26 -77 95 -105 22 -9 59
-25 83 -35 49 -20 62 -38 62 -88 0 -49 -36 -76 -102 -76 -57 0 -84 11 -115 48
-18 21 -25 24 -35 14 -9 -9 -6 -18 17 -42 36 -38 84 -54 146 -48 60 6 96 30
115 75 28 67 -17 134 -111 163 -61 19 -112 47 -119 65 -38 99 93 155 184 78
36 -29 57 -23 34 12 -31 47 -127 68 -190 41z"/>
<path d="M5774 2335 c-4 -9 -2 -21 4 -27 15 -15 44 -1 40 19 -4 23 -36 29 -44
8z"/>
<path d="M5940 2266 c0 -41 -2 -45 -27 -48 -39 -4 -42 -28 -4 -28 l31 0 0 -87
c1 -166 18 -208 83 -201 38 4 49 28 14 28 -56 0 -57 2 -57 136 l0 124 40 0
c29 0 40 4 40 15 0 11 -11 15 -40 15 l-40 0 0 45 c0 38 -3 45 -20 45 -17 0
-20 -7 -20 -44z"/>
<path d="M4622 2220 c-66 -16 -102 -73 -102 -162 0 -116 100 -187 203 -145 59
25 79 67 75 159 -3 69 -6 80 -32 107 -25 26 -85 54 -106 50 -3 -1 -20 -5 -38
-9z m88 -35 c77 -40 83 -185 10 -242 -22 -18 -92 -16 -119 3 -68 48 -66 193 2
234 39 24 68 25 107 5z"/>
<path d="M5250 2000 c0 -189 2 -220 15 -220 12 0 15 16 15 87 l0 86 24 -22
c33 -31 94 -38 141 -15 88 41 102 212 24 278 -43 37 -115 36 -158 0 l-31 -26
0 26 c0 16 -6 26 -15 26 -13 0 -15 -31 -15 -220z m197 174 c12 -7 27 -31 32
-51 30 -106 -14 -193 -97 -193 -70 0 -102 44 -102 137 0 67 17 98 64 119 34
15 68 11 103 -12z"/>
<path d="M5780 2065 c0 -131 2 -155 15 -155 13 0 15 24 15 155 0 131 -2 155
-15 155 -13 0 -15 -24 -15 -155z"/>
</g>

<!-- White text "Co" in upper part -->
<text x="5120" y="4500" font-family="Arial, sans-serif" font-size="2800" font-weight="bold" fill="#ffffff" text-anchor="middle">Co</text>

<!-- Green text "Split" in lower part -->
<text x="5120" y="7500" font-family="Arial, sans-serif" font-size="2800" font-weight="bold" fill="#4a5f56" text-anchor="middle">Split</text>

</svg>
