<?xml version="1.0" standalone="no"?>
<!DOCTYPE svg PUBLIC "-//W3C//DTD SVG 20010904//EN"
 "http://www.w3.org/TR/2001/REC-SVG-20010904/DTD/svg10.dtd">
<svg width="1030" height="1030" viewBox="0 0 1030 1030" fill="none" xmlns="http://www.w3.org/2000/svg">
<path d="M789.362 753.532C830.94 704.034 856.113 654.159 869.689 593.82C894.014 485.208 864.975 364.717 793.416 278.45C779.745 261.951 746.841 230.744 731.285 219.336C670.002 174.458 599.292 150.511 525.564 149.38C481.629 148.625 445.614 154.094 405.262 167.293C347.373 186.338 302.118 214.245 258.655 257.708C211.232 305.132 179.742 359.249 162.3 423.831C153.532 456.547 150.42 480.211 150.232 516.604C149.76 603.813 175.688 677.824 230.748 745.706C242.721 760.508 277.134 793.224 291.842 803.972C333.137 833.953 384.991 858.089 429.775 868.177C466.073 876.38 508.028 879.679 541.498 876.945C614.094 871.288 678.111 847.435 733.831 805.48C745.521 796.618 780.971 763.62 789.362 753.532ZM713.937 771.445C640.587 829.522 539.8 852.998 446.368 833.859C395.456 823.299 350.956 802.746 309.472 770.691C290.239 755.606 260.635 724.87 247.247 705.637C209.817 652.18 190.113 594.008 187.378 529.426C187.001 520.186 187.096 512.172 187.567 511.701C188.133 511.135 334.834 510.758 513.779 510.758C749.387 510.664 839.142 511.23 839.519 512.738C839.897 513.869 839.708 521.978 839.237 530.557C834.994 605.511 806.804 674.241 756.364 731.847C749.104 740.049 724.78 762.865 713.937 771.445Z" fill="#4A5F56"/>
<path d="M431.403 572.682C431.04 569.015 429.479 566.167 426.722 564.136C423.964 562.106 420.222 561.091 415.494 561.091C412.282 561.091 409.57 561.545 407.358 562.455C405.146 563.333 403.449 564.561 402.267 566.136C401.116 567.712 400.54 569.5 400.54 571.5C400.479 573.167 400.828 574.621 401.585 575.864C402.373 577.106 403.449 578.182 404.812 579.091C406.176 579.97 407.752 580.742 409.54 581.409C411.328 582.045 413.237 582.591 415.267 583.045L423.631 585.045C427.691 585.955 431.419 587.167 434.812 588.682C438.206 590.197 441.146 592.061 443.631 594.273C446.116 596.485 448.04 599.091 449.403 602.091C450.797 605.091 451.509 608.53 451.54 612.409C451.509 618.106 450.055 623.045 447.176 627.227C444.328 631.379 440.206 634.606 434.812 636.909C429.449 639.182 422.979 640.318 415.403 640.318C407.888 640.318 401.343 639.167 395.767 636.864C390.222 634.561 385.888 631.152 382.767 626.636C379.676 622.091 378.055 616.47 377.903 609.773H396.949C397.161 612.894 398.055 615.5 399.631 617.591C401.237 619.652 403.373 621.212 406.04 622.273C408.737 623.303 411.782 623.818 415.176 623.818C418.509 623.818 421.403 623.333 423.858 622.364C426.343 621.394 428.267 620.045 429.631 618.318C430.994 616.591 431.676 614.606 431.676 612.364C431.676 610.273 431.055 608.515 429.812 607.091C428.6 605.667 426.813 604.455 424.449 603.455C422.116 602.455 419.252 601.545 415.858 600.727L405.722 598.182C397.873 596.273 391.676 593.288 387.131 589.227C382.585 585.167 380.328 579.697 380.358 572.818C380.328 567.182 381.828 562.258 384.858 558.045C387.919 553.833 392.116 550.545 397.449 548.182C402.782 545.818 408.843 544.636 415.631 544.636C422.54 544.636 428.57 545.818 433.722 548.182C438.903 550.545 442.934 553.833 445.812 558.045C448.691 562.258 450.176 567.136 450.267 572.682H431.403ZM464.415 665.182V569.182H483.506V580.909H484.369C485.218 579.03 486.445 577.121 488.051 575.182C489.688 573.212 491.809 571.576 494.415 570.273C497.051 568.939 500.324 568.273 504.233 568.273C509.324 568.273 514.021 569.606 518.324 572.273C522.627 574.909 526.066 578.894 528.642 584.227C531.218 589.53 532.506 596.182 532.506 604.182C532.506 611.97 531.248 618.545 528.733 623.909C526.248 629.242 522.854 633.288 518.551 636.045C514.278 638.773 509.491 640.136 504.188 640.136C500.43 640.136 497.233 639.515 494.597 638.273C491.991 637.03 489.854 635.47 488.188 633.591C486.521 631.682 485.248 629.758 484.369 627.818H483.778V665.182H464.415ZM483.369 604.091C483.369 608.242 483.945 611.864 485.097 614.955C486.248 618.045 487.915 620.455 490.097 622.182C492.278 623.879 494.93 624.727 498.051 624.727C501.203 624.727 503.869 623.864 506.051 622.136C508.233 620.379 509.884 617.955 511.006 614.864C512.157 611.742 512.733 608.152 512.733 604.091C512.733 600.061 512.172 596.515 511.051 593.455C509.93 590.394 508.278 588 506.097 586.273C503.915 584.545 501.233 583.682 498.051 583.682C494.9 583.682 492.233 584.515 490.051 586.182C487.9 587.848 486.248 590.212 485.097 593.273C483.945 596.333 483.369 599.939 483.369 604.091ZM564.778 545.909V639H545.415V545.909H564.778ZM580.29 639V569.182H599.653V639H580.29ZM590.017 560.182C587.138 560.182 584.669 559.227 582.608 557.318C580.578 555.379 579.562 553.061 579.562 550.364C579.562 547.697 580.578 545.409 582.608 543.5C584.669 541.561 587.138 540.591 590.017 540.591C592.896 540.591 595.35 541.561 597.381 543.5C599.441 545.409 600.472 547.697 600.472 550.364C600.472 553.061 599.441 555.379 597.381 557.318C595.35 559.227 592.896 560.182 590.017 560.182ZM652.301 569.182V583.727H610.256V569.182H652.301ZM619.801 552.455H639.165V617.545C639.165 619.333 639.438 620.727 639.983 621.727C640.528 622.697 641.286 623.379 642.256 623.773C643.256 624.167 644.407 624.364 645.71 624.364C646.619 624.364 647.528 624.288 648.438 624.136C649.347 623.955 650.044 623.818 650.528 623.727L653.574 638.136C652.604 638.439 651.241 638.788 649.483 639.182C647.725 639.606 645.589 639.864 643.074 639.955C638.407 640.136 634.316 639.515 630.801 638.091C627.316 636.667 624.604 634.455 622.665 631.455C620.725 628.455 619.771 624.667 619.801 620.091V552.455Z" fill="#4A5F56"/>
<path d="M517.852 426.5H497.943C497.58 423.924 496.837 421.636 495.716 419.636C494.595 417.606 493.155 415.879 491.398 414.455C489.64 413.03 487.61 411.939 485.307 411.182C483.034 410.424 480.564 410.045 477.898 410.045C473.08 410.045 468.883 411.242 465.307 413.636C461.731 416 458.958 419.455 456.989 424C455.019 428.515 454.034 434 454.034 440.455C454.034 447.091 455.019 452.667 456.989 457.182C458.989 461.697 461.777 465.106 465.352 467.409C468.928 469.712 473.064 470.864 477.761 470.864C480.398 470.864 482.837 470.515 485.08 469.818C487.352 469.121 489.367 468.106 491.125 466.773C492.883 465.409 494.337 463.758 495.489 461.818C496.67 459.879 497.489 457.667 497.943 455.182L517.852 455.273C517.337 459.545 516.049 463.667 513.989 467.636C511.958 471.576 509.216 475.106 505.761 478.227C502.337 481.318 498.246 483.773 493.489 485.591C488.761 487.379 483.413 488.273 477.443 488.273C469.14 488.273 461.716 486.394 455.17 482.636C448.655 478.879 443.504 473.439 439.716 466.318C435.958 459.197 434.08 450.576 434.08 440.455C434.08 430.303 435.989 421.667 439.807 414.545C443.625 407.424 448.807 402 455.352 398.273C461.898 394.515 469.261 392.636 477.443 392.636C482.837 392.636 487.837 393.394 492.443 394.909C497.08 396.424 501.186 398.636 504.761 401.545C508.337 404.424 511.246 407.955 513.489 412.136C515.761 416.318 517.216 421.106 517.852 426.5ZM563.148 488.364C556.087 488.364 549.981 486.864 544.83 483.864C539.708 480.833 535.754 476.621 532.966 471.227C530.178 465.803 528.784 459.515 528.784 452.364C528.784 445.152 530.178 438.848 532.966 433.455C535.754 428.03 539.708 423.818 544.83 420.818C549.981 417.788 556.087 416.273 563.148 416.273C570.208 416.273 576.299 417.788 581.42 420.818C586.572 423.818 590.542 428.03 593.33 433.455C596.117 438.848 597.511 445.152 597.511 452.364C597.511 459.515 596.117 465.803 593.33 471.227C590.542 476.621 586.572 480.833 581.42 483.864C576.299 486.864 570.208 488.364 563.148 488.364ZM563.239 473.364C566.451 473.364 569.133 472.455 571.284 470.636C573.436 468.788 575.057 466.273 576.148 463.091C577.269 459.909 577.83 456.288 577.83 452.227C577.83 448.167 577.269 444.545 576.148 441.364C575.057 438.182 573.436 435.667 571.284 433.818C569.133 431.97 566.451 431.045 563.239 431.045C559.996 431.045 557.269 431.97 555.057 433.818C552.875 435.667 551.223 438.182 550.102 441.364C549.011 444.545 548.466 448.167 548.466 452.227C548.466 456.288 549.011 459.909 550.102 463.091C551.223 466.273 552.875 468.788 555.057 470.636C557.269 472.455 559.996 473.364 563.239 473.364Z" fill="white"/>
</svg>
